<svg width="35" height="35" viewBox="0 0 35 35" fill="none" xmlns="http://www.w3.org/2000/svg">
<path d="M23.4273 2.91666C23.2392 2.91666 23.0818 3.05755 23.0599 3.24422L22.889 4.71964C22.1832 4.9646 21.5453 5.33721 20.992 5.81624L19.6248 5.22664C19.4528 5.15227 19.2539 5.21712 19.1606 5.38045L17.7934 7.74454C17.6986 7.90642 17.7429 8.11362 17.8931 8.22591L19.0723 9.10034C19.0031 9.45949 18.9583 9.82901 18.9583 10.2083C18.9583 10.5877 19.0031 10.9572 19.0723 11.3163L17.8931 12.1908C17.7429 12.3016 17.7 12.5088 17.7934 12.6721L19.1606 15.0362C19.2539 15.1995 19.4528 15.2672 19.6248 15.1929L20.992 14.6004C21.5453 15.0794 22.1832 15.4521 22.889 15.697L23.0599 17.1724C23.0818 17.3591 23.2392 17.5 23.4273 17.5H26.156C26.3441 17.5 26.5016 17.3591 26.5234 17.1724L26.6943 15.697C27.4009 15.4518 28.0405 15.0801 28.5942 14.6004L29.9585 15.1872C30.1306 15.2615 30.3294 15.1967 30.4228 15.0334L31.79 12.6693C31.8848 12.5074 31.8405 12.3002 31.6903 12.1879L30.5139 11.3135C30.5827 10.9553 30.625 10.5866 30.625 10.2083C30.625 9.82901 30.5802 9.45949 30.5111 9.10034L31.6903 8.22591C31.8405 8.11508 31.8833 7.90788 31.79 7.74454L30.4228 5.38045C30.3294 5.21712 30.1306 5.14942 29.9585 5.22379L28.5913 5.81624C28.0381 5.33721 27.4002 4.9646 26.6943 4.71964L26.5234 3.24422C26.5016 3.05755 26.3441 2.91666 26.156 2.91666H23.4273ZM24.7917 7.65625C26.2004 7.65625 27.3438 8.79958 27.3438 10.2083C27.3438 11.6185 26.2004 12.7604 24.7917 12.7604C23.3829 12.7604 22.2396 11.6185 22.2396 10.2083C22.2396 8.79958 23.3829 7.65625 24.7917 7.65625ZM10.3023 13.125C10.1142 13.125 9.95677 13.2659 9.9349 13.4526L9.6814 15.6201C8.50414 15.955 7.44142 16.5555 6.58814 17.3861L4.60572 16.5316C4.43363 16.4572 4.23478 16.522 4.14144 16.6854L2.77425 19.0495C2.67946 19.2114 2.72374 19.4185 2.87394 19.5308L4.61996 20.824C4.47533 21.3968 4.375 21.9865 4.375 22.6042C4.375 23.2218 4.47533 23.8116 4.61996 24.3844L2.87394 25.6803C2.72374 25.7912 2.68092 25.9984 2.77425 26.1617L4.14144 28.5258C4.23478 28.6891 4.43363 28.754 4.60572 28.6796L6.58814 27.8223C7.44142 28.6528 8.50414 29.2533 9.6814 29.5882L9.9349 31.7558C9.95677 31.9424 10.1142 32.0833 10.3023 32.0833H13.031C13.2191 32.0833 13.3766 31.9424 13.3984 31.7558L13.6519 29.5882C14.8292 29.2533 15.8919 28.6528 16.7452 27.8223L18.7276 28.6768C18.8997 28.7511 19.0986 28.6863 19.1919 28.5229L20.5591 26.1588C20.6539 25.997 20.6096 25.7898 20.4594 25.6775L18.7134 24.3844C18.858 23.8116 18.9583 23.2218 18.9583 22.6042C18.9583 21.9865 18.858 21.3968 18.7134 20.824L20.4594 19.528C20.6096 19.4172 20.6524 19.21 20.5591 19.0466L19.1919 16.6825C19.0986 16.5192 18.8997 16.4543 18.7276 16.5287L16.7452 17.3861C15.8919 16.5555 14.8292 15.955 13.6519 15.6201L13.3984 13.4526C13.3766 13.2659 13.2191 13.125 13.031 13.125H10.3023ZM11.6667 19.6875C13.2781 19.6875 14.5833 20.9927 14.5833 22.6042C14.5833 24.2156 13.2781 25.5208 11.6667 25.5208C10.0552 25.5208 8.75 24.2156 8.75 22.6042C8.75 20.9927 10.0552 19.6875 11.6667 19.6875Z" fill="url(#paint0_linear_292_32)"/>
<defs>
<linearGradient id="paint0_linear_292_32" x1="17.2821" y1="2.91666" x2="17.2821" y2="32.0833" gradientUnits="userSpaceOnUse">
<stop stop-color="#F7F7F7"/>
<stop offset="1" stop-color="#8AA1BF"/>
</linearGradient>
</defs>
</svg>
