<svg width="27" height="32" viewBox="0 0 27 32" fill="none" xmlns="http://www.w3.org/2000/svg">
<path d="M26.122 23.6274L23.2916 6.31216C23.213 5.83532 22.8827 5.43707 22.4272 5.27324C21.9716 5.11208 21.4628 5.20665 21.0992 5.52498L16.7744 9.31436L14.3383 4.58463C14.1172 4.15708 13.683 3.88136 13.2021 3.86405C12.72 3.84673 12.2684 4.08915 12.0167 4.50072L10.5622 6.87957L7.44814 0.727325C7.19374 0.225183 6.64498 -0.0518613 6.09089 0.00807609C5.53148 0.080001 5.07862 0.495567 4.95874 1.04699L0.0305543 23.7246C-0.125283 24.4426 0.330241 25.1525 1.04949 25.3083C1.08545 25.3163 1.12142 25.315 1.15738 25.3203C1.16137 25.3216 1.16271 25.3256 1.1667 25.327L12.4283 31.8202C12.6334 31.9401 12.8625 32 13.0929 32C13.3247 32 13.5564 31.9401 13.7629 31.8189L25.4773 24.9927C25.9541 24.7143 26.2112 24.1722 26.122 23.6274ZM13.0543 7.91182L14.7086 11.1231L13.3247 12.3352L11.9767 9.67398L13.0543 7.91182ZM11.2562 14.148L6.93534 17.9334L10.3451 12.3485L11.2562 14.148ZM6.76486 5.27724L8.93059 9.55411L4.12628 17.4219L6.76486 5.27724ZM13.0889 29.1283L4.10896 23.9511L13.9081 15.3654C13.9174 15.3547 13.9294 15.3494 13.9387 15.3387L21.0499 9.10924L23.3462 23.1519L13.0889 29.1283Z" fill="url(#paint0_linear_1557_7)"/>
<defs>
<linearGradient id="paint0_linear_1557_7" x1="13.0698" y1="0" x2="13.0698" y2="32" gradientUnits="userSpaceOnUse">
<stop stop-color="#F7F7F7"/>
<stop offset="1" stop-color="#8AA1BF"/>
</linearGradient>
</defs>
</svg>
