<svg width="32" height="32" viewBox="0 0 32 32" fill="none" xmlns="http://www.w3.org/2000/svg">
<path fill-rule="evenodd" clip-rule="evenodd" d="M16 4C9.37109 4 4 9.27732 4 15.7905C4 20.9987 7.4375 25.4202 12.207 26.9784C12.8086 27.0859 13.0273 26.7251 13.0273 26.4104C13.0273 26.1302 13.0156 25.3895 13.0117 24.4069C9.67187 25.117 8.96875 22.8257 8.96875 22.8257C8.42188 21.4631 7.63672 21.0985 7.63672 21.0985C6.54688 20.3693 7.71875 20.3847 7.71875 20.3847C8.92188 20.4691 9.55469 21.5975 9.55469 21.5975C10.625 23.4014 12.3633 22.8794 13.0469 22.58C13.1562 21.8162 13.4687 21.2981 13.8086 21.0026C11.1445 20.707 8.34375 19.6938 8.34375 15.1764C8.34375 13.8868 8.8125 12.8352 9.57812 12.01C9.45703 11.7145 9.04297 10.5132 9.69531 8.88968C9.69531 8.88968 10.7031 8.57496 12.9961 10.0987C13.9531 9.83768 14.9805 9.70719 16 9.70335C17.0195 9.70719 18.0469 9.83768 19.0039 10.0987C21.2969 8.57496 22.3008 8.88968 22.3008 8.88968C22.957 10.5132 22.5469 11.7145 22.4219 12.01C23.1914 12.8352 23.6523 13.8868 23.6523 15.1764C23.6523 19.7053 20.8477 20.6994 18.1758 20.9949C18.6055 21.3557 18.9883 22.0772 18.9883 23.1749C18.9883 24.7524 18.9766 26.0228 18.9766 26.4104C18.9766 26.7251 19.1914 27.0936 19.8008 26.9784C24.5664 25.4163 28 20.9987 28 15.7905C28 9.27732 22.6289 4 16 4Z" fill="#00BBFF"/>
</svg>
