<svg width="35" height="35" viewBox="0 0 35 35" fill="none" xmlns="http://www.w3.org/2000/svg">
<path d="M17.5 3.28125C15.462 3.28125 13.783 4.67834 13.2959 6.5625H3.28125V28.4375H31.7188V6.5625H21.7041C21.217 4.67834 19.538 3.28125 17.5 3.28125ZM17.5 5.46875C18.3844 5.46875 19.0637 5.89172 19.4141 6.5625H15.5859C15.9363 5.89172 16.6156 5.46875 17.5 5.46875ZM5.46875 8.75H29.5312V18.5938H5.46875V8.75ZM17.5 15.3125C16.8976 15.3125 16.4062 15.8038 16.4062 16.4062C16.4062 17.0087 16.8976 17.5 17.5 17.5C18.1024 17.5 18.5938 17.0087 18.5938 16.4062C18.5938 15.8038 18.1024 15.3125 17.5 15.3125ZM5.46875 20.7812H29.5312V26.25H5.46875V20.7812Z" fill="url(#paint0_linear_297_5)"/>
<defs>
<linearGradient id="paint0_linear_297_5" x1="17.5" y1="3.28125" x2="17.5" y2="28.4375" gradientUnits="userSpaceOnUse">
<stop stop-color="#F7F7F7"/>
<stop offset="1" stop-color="#8AA1BF"/>
</linearGradient>
</defs>
</svg>
