<svg width="30" height="32" viewBox="0 0 30 32" fill="none" xmlns="http://www.w3.org/2000/svg">
<path d="M14.762 0C14.3128 0 13.8637 0.110192 13.476 0.331731L1.27885 7.3726C0.491154 7.82798 0 8.69019 0 9.60096V22.375C0 23.2981 0.491154 24.148 1.27885 24.6034L4.48077 26.4495C6.03154 27.2126 6.58452 27.2115 7.28606 27.2115C9.5876 27.2115 10.9038 25.821 10.9038 23.4087V10.2284C10.9038 10.0314 10.745 9.87019 10.5481 9.87019H9.00961C8.80038 9.87019 8.65144 10.0314 8.65144 10.2284V23.3966C8.65144 24.4797 7.53279 25.5379 5.72356 24.6394L2.375 22.7067C2.25192 22.6452 2.17788 22.5104 2.17788 22.375V9.61298C2.17788 9.46529 2.25192 9.34067 2.375 9.26683L14.5721 2.22837C14.6829 2.15452 14.8313 2.15452 14.9543 2.22837L27.1514 9.26683C27.2745 9.34067 27.3486 9.46558 27.3486 9.60096V22.375C27.3486 22.5104 27.2742 22.6452 27.1635 22.7067L14.9543 29.7596C14.8436 29.8212 14.6829 29.8212 14.5721 29.7596L11.4327 27.9014C11.3465 27.8399 11.2256 27.8282 11.1394 27.8774C10.2656 28.3697 10.1056 28.4309 9.29327 28.7139C9.09635 28.7755 8.78846 28.8982 9.40385 29.2428L13.476 31.6563C13.8698 31.8778 14.3141 32 14.7572 32C15.2126 32 15.6542 31.8778 16.0481 31.6563L28.2596 24.6034C29.0473 24.148 29.5385 23.2981 29.5385 22.375V9.61298C29.5385 8.6899 29.0473 7.84 28.2596 7.38462L16.0481 0.331731C15.6604 0.110192 15.2113 0 14.762 0ZM18.0433 9.85337C14.5602 9.85337 12.4808 11.3293 12.4808 13.7909C12.4808 16.4616 14.5465 17.1989 17.8942 17.5313C21.8942 17.9251 22.2019 18.5176 22.2019 19.3053C22.2019 20.6591 21.1084 21.238 18.5361 21.238C15.2991 21.238 14.5848 20.4245 14.351 18.8245C14.3263 18.6522 14.1795 18.5288 14.0072 18.5288H12.4183C12.2213 18.5288 12.0745 18.6904 12.0745 18.875C12.0745 20.9304 13.1945 23.3774 18.5361 23.3774C22.4007 23.3774 24.6154 21.8532 24.6154 19.1947C24.6154 16.5609 22.8305 15.858 19.0889 15.3534C15.2859 14.8611 14.9038 14.6025 14.9038 13.7163C14.9038 12.9779 15.2371 12.0072 18.0433 12.0072C20.5417 12.0072 21.4766 12.547 21.8582 14.2332C21.8951 14.3932 22.0296 14.5168 22.2019 14.5168H23.7909C23.8893 14.5168 23.9742 14.4681 24.0481 14.3942C24.1096 14.3327 24.1469 14.2334 24.1346 14.1226C23.8885 11.218 21.9571 9.85337 18.0433 9.85337Z" fill="url(#paint0_linear_1557_5)"/>
<defs>
<linearGradient id="paint0_linear_1557_5" x1="14.7692" y1="0" x2="14.7692" y2="32" gradientUnits="userSpaceOnUse">
<stop stop-color="#F7F7F7"/>
<stop offset="1" stop-color="#8AA1BF"/>
</linearGradient>
</defs>
</svg>
