<svg width="35" height="35" viewBox="0 0 35 35" fill="none" xmlns="http://www.w3.org/2000/svg">
<path d="M14.1667 0C11.865 0 10 1.865 10 4.16667V6.66667H3.33333C1.49167 6.66667 0 8.15833 0 10V16.6667H2.5C4.80167 16.6667 6.66667 18.5317 6.66667 20.8333C6.66667 23.135 4.80167 25 2.5 25H0V31.6667C0 33.5083 1.49167 35 3.33333 35H10V32.5C10 30.1983 11.865 28.3333 14.1667 28.3333C16.4683 28.3333 18.3333 30.1983 18.3333 32.5V35H25C26.8417 35 28.3333 33.5083 28.3333 31.6667V25H30.8333C33.135 25 35 23.135 35 20.8333C35 18.5317 33.135 16.6667 30.8333 16.6667H28.3333V10C28.3333 8.15833 26.8417 6.66667 25 6.66667H18.3333V4.16667C18.3333 1.865 16.4683 0 14.1667 0Z" fill="url(#paint0_linear_292_31)"/>
<defs>
<linearGradient id="paint0_linear_292_31" x1="17.5" y1="0" x2="17.5" y2="35" gradientUnits="userSpaceOnUse">
<stop stop-color="#F7F7F7"/>
<stop offset="1" stop-color="#8AA1BF"/>
</linearGradient>
</defs>
</svg>
