<svg width="32" height="32" viewBox="0 0 32 32" fill="none" xmlns="http://www.w3.org/2000/svg">
<path d="M21 3C16.5703 3 13 6.57031 13 11C13 11.2344 13.0352 11.5547 13.0625 11.8438L4.5 20.4062C2.53125 22.375 2.53125 25.5312 4.5 27.5C6.46875 29.4688 9.625 29.4688 11.5938 27.5L20.1562 18.9375C20.4453 18.9648 20.7656 19 21 19C25.4297 19 29 15.4297 29 11C29 9.63281 28.6484 8.36719 28.0625 7.3125L27.4375 6.15625L26.5 7.09375L22.1875 11.375L20.625 9.8125L24.9062 5.5L25.8438 4.5625L24.6875 3.9375C23.6328 3.35156 22.3672 3 21 3ZM21 5C21.4844 5 21.8477 5.20703 22.2812 5.3125L17.7812 9.8125L18.5 10.5L21.5 13.5L22.1875 14.2188L26.6875 9.71875C26.793 10.1523 27 10.5156 27 11C27 14.3711 24.3711 17 21 17C20.6016 17 20.2773 17 20.0312 16.9375L19.5 16.7812L10.1875 26.0938C8.95703 27.3242 7.13672 27.3242 5.90625 26.0938L5.875 26.0625C4.67578 24.832 4.68359 23.0352 5.90625 21.8125L15.2188 12.5L15.0625 11.9688C15 11.7227 15 11.3984 15 11C15 7.62891 17.6289 5 21 5Z" fill="url(#paint0_linear_293_38)"/>
<defs>
<linearGradient id="paint0_linear_293_38" x1="16.0117" y1="3" x2="16.0117" y2="28.9766" gradientUnits="userSpaceOnUse">
<stop stop-color="#F7F7F7"/>
<stop offset="1" stop-color="#8AA1BF"/>
</linearGradient>
</defs>
</svg>
