<svg width="32" height="32" viewBox="0 0 32 32" fill="none" xmlns="http://www.w3.org/2000/svg">
<path d="M4 4V5V28H28V4H4ZM6 6H26V26H6V6ZM10.3242 14V15.873H12.8789V24.0156H14.9805V15.873H17.5879V14H10.3242ZM20.7031 14.1621C19.2451 14.2685 17.7871 14.8789 17.7871 16.8984C17.7871 19.8694 21.7891 19.8709 21.7891 21.2109C21.7891 21.3379 21.8446 22.2617 20.4316 22.2617C19.0186 22.2617 17.8418 21.373 17.8418 21.373V23.5273C17.8418 23.5273 24 25.5193 24 21.0273C24 18.1113 19.9609 18.2576 19.9609 16.8086C19.9609 16.2466 20.3598 15.7207 21.4648 15.7207C22.5698 15.7207 23.5469 16.373 23.5469 16.373L23.6191 14.4531C23.6191 14.4531 22.1611 14.0557 20.7031 14.1621Z" fill="url(#paint0_linear_292_28)"/>
<defs>
<linearGradient id="paint0_linear_292_28" x1="16" y1="4" x2="16" y2="28" gradientUnits="userSpaceOnUse">
<stop stop-color="#F7F7F7"/>
<stop offset="1" stop-color="#8AA1BF"/>
</linearGradient>
</defs>
</svg>
